# xmcd CD database file
#
# Track frame offsets:
#	151
#	12199
#	23225
#	36624
#	49795
#	61995
#	76557
#	89747
#	103412
#	114622
#	136211
#	150365
#	162086
#	175497
#	190903
#	203578
#	213001
#	224847
#	238637
#	250342
#
# Disc length: 3527 seconds
#
# Revision: 0
# Processed by: cddbd v1.5.1PL2 Copyright (c) Steve Scherf et al.
# Submitted via: CDex 1.51
#
DISCID=170dc514
DTITLE=Various Artist - History of Jazz
DYEAR=1951
DGENRE=Jazz
TTITLE0=FLAMINGO (Grouya-Anderson) Earl Bosticc Sextet - Jan 10
TTITLE1=PLAY, PIANO, PLAY (Garner) Erroll Garner Trio - Jan 11
TTITLE2=THOU SWELL (Rodgers-Hart) Lester Young Quartet - Jan 16
TTITLE3=SCHOOL DAYS (Traditional) Roy Eldridge Sextet - Jan 20
TTITLE4=TIN TIN DEO (Fuller-Pozo) Dizzy Gillespie Sextet - Mar 1
TTITLE5=AFTER YOU'VE GONE (Creamer-Layton) George Wettling's Dixielanders Jazz Band - Mar 2
TTITLE6=EZZ-THETIC (Russell) Lee Konitz Sextet - Mar 8
TTITLE7=BEAVER JUNCTlON (Edison ) Count Basie and His Orchestra - Apr 10
TTITLE8=THIS CAN'T BE LOVE (Rodgers) Red Norvo Trio with Tal Farlow and Charles Mingus - Apr 13
TTITLE9=UN POCO LOCO (Powell) Bud Powell Trio - May 1
TTITLE10=BROWN BETTY (Ellington-Strayhorn) Duke Ellington and His Orchestra - May 24
TTITLE11=CASTLE ROCK (Drake-Shirl-Sears) Frank Sinatra with Orchestra dir by Harry James - Jul 19
TTITLE12=STRAIGHT NO CHASER (Monk) Thelonious Monk Quintet - Jul 23
TTITLE13=LOVER MAN (Weill-Anderson) Charlie Parker Quintet - Aug 8
TTITLE14=IT HAD TO BE YOU (Kahn-Jones) Zoot Sims Quartet - Aug 14
TTITLE15=DADDY (Troup) June Christy with Stan Kenton and His Orchestra - Sep 20
TTITLE16=CROSS FIRE (Green) Paul Quinichette Sextet - Oct 5
TTITLE17=0VER THE RAINBOW (Harburg-Arlen) Shorty Rogers and His Giants - Oct 8
TTITLE18=NECESSARY EVIL (Evans) Louis Armstrong and Ella Fitzgerald with Dave Barbour Orchestra - Nov 23
TTITLE19=STARDUST (Carmichael) Johnny Otis and His Orchestra feat Ben Webster - Dec 26
EXTD=YEAR: 1951
EXTT0=
EXTT1=
EXTT2=
EXTT3=
EXTT4=
EXTT5=
EXTT6=
EXTT7=
EXTT8=
EXTT9=
EXTT10=
EXTT11=
EXTT12=
EXTT13=
EXTT14=
EXTT15=
EXTT16=
EXTT17=
EXTT18=
EXTT19=
PLAYORDER=
